# xmcd
#
# Track frame offsets:
#	150
#	16523
#	38057
#	62047
#	82848
#	98656
#	120074
#	141697
#	165214
#	189389
#	208637
#	230061
#
# Disc length: 3340 seconds
#
# Revision: 1375215034
# Processed by: cddbd v1.5.2PL0 Copyright (c) Steve Scherf et al.
# Submitted via: EZCDAudioConverter 8.0.2.1
#
DISCID=8a0d0a0c
DTITLE=Ngọc Anh - Tạ Tình
DYEAR=2011
DGENRE=
TTITLE0=Ngọc Anh - Nửa hồn thương đau
TTITLE1=Ngọc Anh - Sầu vương khói mây
TTITLE2=Ngọc Anh - Sầu khúc
TTITLE3=Ngọc Anh - Tháng sáu trời mưa
TTITLE4=Ngọc Anh - Cuối cùng là hư vô
TTITLE5=Ngọc Anh, Bằng Kiều - Riêng một góc trời
TTITLE6=Ngọc Anh - Cho em quên tuổi ngọc
TTITLE7=Ngọc Anh - Em về nào có hay
TTITLE8=Ngọc Anh, Thái Hòa - Tạ Tình
TTITLE9=Ngọc Anh - Mùa thu chết
TTITLE10=Ngọc Anh - Tình khúc thứ nhất
TTITLE11=Ngọc Anh - Em hãy về đi
EXTD=
EXTT0=
EXTT1=
EXTT2=
EXTT3=
EXTT4=
EXTT5=
EXTT6=
EXTT7=
EXTT8=
EXTT9=
EXTT10=
EXTT11=
PLAYORDER=
